<svg width="19" height="18" viewBox="0 0 19 18" fill="none" xmlns="http://www.w3.org/2000/svg">
<path d="M18.0181 13.5151L14.1497 11.0025C13.7267 10.7274 13.2232 10.6343 12.7304 10.7362C12.2369 10.8401 11.8127 11.1315 11.5376 11.5564L11.3557 11.8358C9.68146 11.2826 7.83538 10.5757 6.73013 7.37642L7.18771 6.97863C7.97322 6.29571 8.05568 5.10108 7.37276 4.31431L4.34653 0.833007C4.11868 0.570541 3.72089 0.543476 3.45842 0.770695L1.55821 2.42228C-0.108482 3.8712 0.670106 6.01436 0.926279 6.71868C0.937608 6.75015 0.951455 6.78036 0.96782 6.80995C1.03391 6.92828 2.61186 9.74428 5.16036 12.34C7.71894 14.9464 12.3382 17.3533 12.4798 17.4232C13.0073 17.7656 13.6008 17.9298 14.1881 17.9298C15.2191 17.9298 16.2299 17.4244 16.8329 16.4979L18.2038 14.3869C18.3926 14.0942 18.3095 13.7046 18.0181 13.5151ZM15.7767 15.8119C15.2096 16.6855 14.0377 16.9335 13.1124 16.3368C13.0665 16.3129 8.47739 13.923 6.05854 11.4588C3.79768 9.15578 2.29652 6.5972 2.09196 6.24032C1.59346 4.84239 1.68158 3.98324 2.38401 3.3727L3.80963 2.13401L6.42297 5.1401C6.65523 5.40698 6.62816 5.79721 6.36255 6.02821L5.59025 6.69917C5.40206 6.86282 5.32779 7.12151 5.40143 7.35943C6.71817 11.6382 9.27863 12.4785 11.148 13.0921L11.4205 13.1822C11.6931 13.2741 11.9914 13.1689 12.1475 12.9285L12.5938 12.2412C12.6857 12.0989 12.8267 12.0026 12.9903 11.968C13.1546 11.9328 13.322 11.9655 13.4643 12.058L16.8052 14.2276L15.7767 15.8119Z" fill="white"/>
</svg>
