<svg width="20" height="19" fill="none" xmlns="http://www.w3.org/2000/svg"><path d="M18.018 14.515l-3.868-2.513a1.885 1.885 0 00-2.612.554l-.182.28c-1.675-.553-3.52-1.26-4.626-4.46l.458-.397a1.891 1.891 0 00.185-2.665L4.347 1.833a.63.63 0 00-.889-.062l-1.9 1.651C-.108 4.872.67 7.014.926 7.72a.626.626 0 00.042.09c.066.12 1.644 2.935 4.192 5.531 2.559 2.606 7.178 5.013 7.32 5.083a3.15 3.15 0 004.353-.925l1.37-2.111a.631.631 0 00-.185-.872zm-2.241 2.297c-.567.873-1.74 1.121-2.665.525-.046-.024-4.635-2.414-7.053-4.878-2.261-2.303-3.762-4.862-3.967-5.219-.499-1.398-.41-2.257.292-2.867L3.81 3.134 6.423 6.14a.623.623 0 01-.06.888L5.59 7.7a.629.629 0 00-.189.66c1.317 4.28 3.878 5.12 5.747 5.733l.273.09a.627.627 0 00.727-.254l.446-.687a.622.622 0 01.87-.183l3.341 2.17-1.028 1.584zm-4.64-11.263a.628.628 0 10-.345 1.21 2.848 2.848 0 011.95 1.954.63.63 0 001.21-.341 4.115 4.115 0 00-2.815-2.823z" fill="#fff"/><path d="M15.927 9.308a.63.63 0 00.606-.8 7.993 7.993 0 00-5.47-5.482.629.629 0 10-.344 1.211 6.725 6.725 0 014.602 4.612.63.63 0 00.606.459z" fill="#fff"/><path d="M10.792.095a.63.63 0 10-.345 1.211 11.394 11.394 0 017.798 7.815.63.63 0 001.211-.342C18.28 4.61 14.96 1.281 10.792.095z" fill="#fff"/></svg>